<?xml version="1.0"?>
<svg id="Layer_1" xmlns="http://www.w3.org/2000/svg" version="1.1" viewBox="0 0 1200 1195.86">
  
  <path d="M600,1181.21c-6.22,0-11.57-3.88-12.82-9.3-36.12-157.28-93.96-224.87-136.19-274.21-57.6-67.29-79.71-102.68.04-236.14C590.67,427.86,586.94,31.87,586.89,27.89c-.09-6.42,5.7-11.69,12.94-11.75.07,0,.19.02.18,0,.08.02.12,0,.19,0,7.23.07,13.02,5.33,12.94,11.75-.05,3.97-3.79,399.97,135.85,633.66,79.75,133.47,57.64,168.85.05,236.14-42.23,49.34-100.07,116.93-136.19,274.21-1.24,5.43-6.6,9.3-12.82,9.3h-.03ZM600,244.38c-15.76,133.11-50.3,301.62-125.85,428.06-75.27,125.98-53.93,150.93-2.34,211.21,39.04,45.6,90.94,106.23,128.18,234.15,37.23-127.92,89.14-188.55,128.17-234.15,51.59-60.28,72.93-85.23-2.34-211.21-75.53-126.44-110.07-294.96-125.83-428.06h0Z" fill="#ff5100"></path>
  <path d="M600,1181.21c-5.48,0-10.37-3.01-12.26-7.58-65.46-156.57-170.78-224.19-247.69-273.53-50.74-32.57-90.79-58.29-94.67-97.18-3.62-36.32,24.82-79.39,95.09-144C593.63,426.16,586.98,31.96,586.87,28.01c-.15-6.4,5.57-11.73,12.8-11.87h.68c7.22.13,12.95,5.47,12.79,11.87-.11,3.97-6.77,398.15,246.39,630.91,70.28,64.64,98.73,107.69,95.09,144-3.87,38.9-43.95,64.61-94.67,97.18-76.89,49.34-182.22,116.96-247.69,273.53-1.91,4.56-6.8,7.58-12.26,7.58h0ZM600,181.18c-22.14,140.33-81.6,347.61-240.7,493.91-63.62,58.47-90.71,97.28-87.86,125.78,2.83,28.34,36.85,50.18,83.94,80.41,75.02,48.14,176.12,113.03,244.64,256.83,68.5-143.8,169.62-208.69,244.62-256.83,47.1-30.23,81.11-52.07,83.94-80.41,2.85-28.5-24.24-67.31-87.86-125.78-159.12-146.3-218.56-353.58-240.7-493.91h-.01Z" fill="#ff5100"></path>
  <path d="M600,1181.21c-4.54,0-8.75-2.09-11.13-5.49-109.37-156.8-286.02-224.75-415-274.39-89.24-34.31-153.71-59.13-157.18-101.13-3.11-37.62,42.99-79.09,159.1-143.08C597.86,424.55,586.99,32.12,586.85,28.19c-.27-6.42,5.38-11.8,12.6-12.05.16,0,.39-.05.55,0,.12-.05.37,0,.57,0,7.22.25,12.87,5.63,12.6,12.05-.15,3.93-11.02,396.35,411.05,628.94,116.11,63.98,162.21,105.44,159.1,143.08-3.47,42.01-67.95,66.82-157.18,101.13-128.97,49.63-305.62,117.59-415,274.39-2.39,3.41-6.6,5.49-11.13,5.49h-.01ZM600,144.42c-28.75,139.16-120.3,372.59-410.4,532.46-100.94,55.63-148.98,95.42-146.8,121.63,2.31,27.98,63.73,51.61,141.49,81.53,127.93,49.21,301.62,116.04,415.73,268.08,114.11-152.03,287.8-218.88,415.72-268.08,77.76-29.92,139.18-53.54,141.49-81.53,2.18-26.21-45.86-65.99-146.8-121.63-290.1-159.87-381.65-393.29-410.42-532.46h0Z" fill="#ff5100"></path>
  <path d="M1145.34,790.29c-362.53,12.75-727.61,12.75-1090.24,0,362.65-12.76,727.67-12.76,1090.24,0h0Z" fill="#ff5100"></path>
  <path d="M600,46.07c17.84,351.7,17.86,706.34,0,1058.11-17.86-351.8-17.84-706.38,0-1058.11h0Z" fill="#ff5100"></path>
  <path d="M600.47,299.13c0,453.18-39.99,493.16-493.16,493.16,440.56,0,490.6,13.18,493.04,430.3h.23c2.45-417.12,52.48-430.3,493.04-430.3-453.18,0-493.16-39.99-493.16-493.16h.01Z" fill="#ff5100"></path>
</svg>