<?xml version="1.0"?>
<svg id="Layer_1" xmlns="http://www.w3.org/2000/svg" version="1.1" viewBox="0 0 1200 1195.86">
  
  <path d="M600,1082.38c-4.6,0-8.56-3.23-9.48-7.75-26.72-131.01-69.5-187.31-100.74-228.41-42.61-56.05-58.96-85.53.03-196.7,103.29-194.66,100.53-524.51,100.49-527.82-.07-5.35,4.22-9.74,9.57-9.79.05,0,.14.02.13,0,.06.02.09,0,.14,0,5.35.06,9.63,4.44,9.57,9.79-.04,3.31-2.8,333.16,100.49,527.82,58.99,111.18,42.64,140.65.04,196.7-31.24,41.1-74.02,97.4-100.74,228.41-.92,4.52-4.88,7.75-9.48,7.75ZM600,302.03c-11.66,110.88-37.21,251.24-93.09,356.56-55.68,104.94-39.89,125.72-1.73,175.93,28.88,37.98,67.27,88.49,94.82,195.04,27.54-106.55,65.94-157.06,94.81-195.04,38.16-50.21,53.95-70.99-1.73-175.93-55.87-105.32-81.42-245.69-93.08-356.56Z" fill="#ff5100"></path>
  <path d="M600,1082.38c-4.05,0-7.67-2.51-9.07-6.31-48.42-130.42-126.33-186.74-183.22-227.84-37.53-27.13-67.16-48.55-70.03-80.95-2.68-30.25,18.36-66.13,70.34-119.95,187.27-193.89,182.35-522.24,182.27-525.53-.11-5.33,4.12-9.77,9.47-9.89h.5c5.34.11,9.58,4.56,9.46,9.89-.08,3.31-5.01,331.65,182.26,525.53,51.99,53.84,73.03,89.7,70.34,119.95-2.86,32.4-32.51,53.82-70.03,80.95-56.88,41.1-134.79,97.42-183.22,227.84-1.41,3.8-5.03,6.31-9.07,6.31ZM600,249.38c-16.38,116.89-60.36,289.55-178.05,411.41-47.06,48.7-67.1,81.03-64.99,104.77,2.09,23.61,27.26,41.8,62.09,66.98,55.49,40.1,130.28,94.15,180.96,213.93,50.67-119.78,125.47-173.83,180.95-213.93,34.84-25.18,60-43.37,62.09-66.98,2.11-23.74-17.93-56.07-64.99-104.77-117.7-121.86-161.67-294.52-178.05-411.41Z" fill="#ff5100"></path>
  <path d="M600,1082.38c-3.36,0-6.47-1.74-8.23-4.57-80.9-130.61-211.57-187.21-306.98-228.56-66.01-28.58-113.7-49.25-116.27-84.24-2.3-31.34,31.8-65.88,117.69-119.18C598.42,452.1,590.38,125.22,590.27,121.95c-.2-5.35,3.98-9.83,9.32-10.04.12,0,.29-.04.41,0,.09-.04.27,0,.42,0,5.34.21,9.52,4.69,9.32,10.04-.11,3.27-8.15,330.15,304.06,523.89,85.89,53.29,119.99,87.83,117.69,119.18-2.57,34.99-50.26,55.66-116.27,84.24-95.4,41.34-226.07,97.95-306.98,228.56-1.77,2.84-4.88,4.57-8.23,4.57ZM600,218.76c-21.27,115.92-88.99,310.36-303.58,443.52-74.67,46.34-110.2,79.48-108.59,101.31,1.71,23.31,47.14,42.99,104.66,67.91,94.63,40.99,223.11,96.66,307.52,223.3,84.41-126.64,212.89-182.32,307.51-223.3,57.52-24.92,102.95-44.6,104.66-67.91,1.61-21.83-33.92-54.97-108.59-101.31-214.59-133.17-282.31-327.6-303.59-443.52Z" fill="#ff5100"></path>
  <path d="M600,1088.11c-2.91,0-5.66-1.3-7.5-3.55-106.92-131.01-279.65-187.8-405.77-229.28-90.34-29.7-150.02-49.32-152.23-85.45-1.95-31.74,42.87-66.17,154.67-118.82C600.79,457.16,590.4,131.02,590.25,127.75c-.25-5.33,3.88-9.87,9.21-10.11.19-.04.37-.06.55-.02.21.02.36,0,.54.02,5.33.25,9.45,4.78,9.21,10.11-.15,3.27-10.53,329.42,401.08,523.26,111.8,52.65,156.61,87.08,154.66,118.8-2.21,36.15-61.89,55.77-152.23,85.47-126.12,41.48-298.85,98.27-405.76,229.28-1.83,2.25-4.58,3.55-7.5,3.55ZM599.67,212.67c-24.7,114.37-109.93,318.19-402.26,455.85-96.57,45.48-144.88,79.15-143.59,100.12,1.42,23.03,65.16,43.99,138.96,68.25,125.52,41.29,296.4,97.47,407.22,226.48,110.82-129.01,281.69-185.19,407.21-226.48,73.81-24.25,137.55-45.22,138.96-68.25,1.29-20.97-47.03-54.63-143.58-100.12-221.13-104.13-321.41-245.48-366.6-345.69-18.67-41.4-29.76-79.12-36.32-110.16Z" fill="#ff5100"></path>
  <path d="M1156.21,765.84c-369.8,13.01-742.19,13.01-1112.09,0,369.92-13.02,742.26-13.02,1112.09,0h0Z" fill="#ff5100"></path>
  <path d="M600,242.7c13.2,260.16,13.21,522.49,0,782.7-13.21-260.23-13.2-522.52,0-782.7h0Z" fill="#ff5100"></path>
  <path d="M600.35,401.04c0,335.22-29.58,364.8-364.8,364.8,325.89,0,362.9,9.75,364.71,318.3h.17c1.81-308.55,38.82-318.3,364.71-318.3-335.22,0-364.8-29.58-364.8-364.8Z" fill="#ff5100"></path>
</svg>