<?xml version="1.0"?>
<svg id="Layer_1" xmlns="http://www.w3.org/2000/svg" version="1.1" viewBox="0 0 1200 1195.86">
  
  <rect width="1200" height="1195.86" fill="#ff5100"></rect>
  <path d="M595.59,1187.92c-10.01,0-18.62-3.79-20.63-9.09-58.13-153.79-151.21-219.88-219.17-268.13-92.7-65.8-128.28-100.4.06-230.9,224.73-228.52,218.72-615.72,218.64-619.61-.14-6.28,9.17-11.43,20.82-11.49.11,0,.31.02.29,0,.13.02.19,0,.31,0,11.64.07,20.95,5.21,20.82,11.49-.08,3.88-6.1,391.1,218.63,619.6,128.34,130.51,92.76,165.1.08,230.9-67.96,48.25-161.05,114.34-219.17,268.13-2,5.31-10.62,9.09-20.63,9.09h-.05,0ZM595.59,271.88c-25.36,130.16-80.95,294.93-202.53,418.56-121.13,123.19-86.79,147.58-3.77,206.52,62.83,44.59,146.35,103.87,206.28,228.96,59.92-125.08,143.46-184.37,206.27-228.96,83.03-58.94,117.37-83.34-3.77-206.52-121.55-123.63-177.14-288.42-202.5-418.56h.02Z" fill="#fff"></path>
  <path d="M595.59,1187.92c-8.82,0-16.69-3.03-19.73-7.63-105.35-157.51-274.84-225.54-398.61-275.18-81.66-32.77-146.11-58.64-152.36-97.76-5.83-36.54,39.94-79.87,153.03-144.87C585.34,428.33,574.64,31.76,574.46,27.79c-.24-6.44,8.96-11.8,20.6-11.94h1.09c11.62.13,20.84,5.5,20.58,11.94-.18,3.99-10.9,400.55,396.52,634.71,113.1,65.03,158.89,108.34,153.03,144.87-6.23,39.13-70.73,65-152.36,97.76-123.74,49.64-293.25,117.66-398.61,275.18-3.07,4.59-10.94,7.63-19.73,7.63h0ZM595.59,181.88c-35.63,141.17-131.32,349.7-387.37,496.88-102.39,58.82-145.98,97.87-141.4,126.54,4.55,28.51,59.3,50.48,135.09,80.89,120.73,48.43,283.44,113.71,393.71,258.38,110.24-144.67,272.97-209.95,393.67-258.38,75.8-30.41,130.53-52.38,135.09-80.89,4.59-28.67-39.01-67.72-141.4-126.54-256.08-147.18-351.73-355.71-387.37-496.88h-.03Z" fill="#fff"></path>
  <path d="M1145.34,790.29c-362.53,12.75-727.61,12.75-1090.24,0,362.65-12.76,727.67-12.76,1090.24,0h0Z" fill="#fff"></path>
  <path d="M600,185.26c17.84,305.43,17.86,613.42,0,918.92-17.86-305.52-17.84-613.46,0-918.92h0Z" fill="#fff"></path>
  <path d="M595.61,314.69c0,432.43-39.99,470.57-493.16,470.57,440.56,0,490.6,12.58,493.04,410.59h.23c2.45-398.02,52.48-410.59,493.04-410.59-453.18,0-493.16-38.16-493.16-470.57h.01Z" fill="#fff"></path>
</svg>